<?xml version="1.0" encoding="UTF-8"?>
<svg width="17px" height="17px" viewBox="0 0 17 17" version="1.1" xmlns="http://www.w3.org/2000/svg" xmlns:xlink="http://www.w3.org/1999/xlink">
    <!-- Generator: Sketch 64 (93537) - https://sketch.com -->
    <title>close</title>
    <desc>Created with Sketch.</desc>
    <defs>
        <path d="M1.61289944,0.20970461 L1.70710678,0.29289322 L7.999,6.585 L14.2928932,0.29289322 C14.6834175,-0.09763107 15.3165825,-0.09763107 15.7071068,0.29289322 C16.0675907,0.65337718 16.0953203,1.22060824 15.7902954,1.61289944 L15.7071068,1.70710678 L9.414,8 L15.8492424,14.4350288 C16.2397667,14.8255531 16.2397667,15.4587181 15.8492424,15.8492424 C15.4887584,16.2097264 14.9215274,16.2374559 14.5292362,15.932431 L14.4350288,15.8492424 L8,9.414 L1.70710678,15.7071068 C1.31658249,16.0976311 0.68341751,16.0976311 0.29289322,15.7071068 C-0.06759074,15.3466228 -0.09532028,14.7793918 0.20970461,14.3871006 L0.29289322,14.2928932 L6.585,7.999 L0.29289322,1.70710678 C-0.09763107,1.31658249 -0.09763107,0.68341751 0.29289322,0.29289322 C0.65337718,-0.06759074 1.22060824,-0.09532028 1.61289944,0.20970461 Z" id="path-1"></path>
    </defs>
    <g id="Page-1" stroke="none" stroke-width="1" fill="none" fill-rule="evenodd">
        <g id="Artboard" transform="translate(-285.000000, -212.000000)">
            <g id="close" transform="translate(285.000000, 212.000000)">
                <g id="Combined-Shape" fill="#000000" fill-rule="nonzero">
                    <path d="M1.61289944,0.20970461 L1.70710678,0.29289322 L7.999,6.585 L14.2928932,0.29289322 C14.6834175,-0.09763107 15.3165825,-0.09763107 15.7071068,0.29289322 C16.0675907,0.65337718 16.0953203,1.22060824 15.7902954,1.61289944 L15.7071068,1.70710678 L9.414,8 L15.8492424,14.4350288 C16.2397667,14.8255531 16.2397667,15.4587181 15.8492424,15.8492424 C15.4887584,16.2097264 14.9215274,16.2374559 14.5292362,15.932431 L14.4350288,15.8492424 L8,9.414 L1.70710678,15.7071068 C1.31658249,16.0976311 0.68341751,16.0976311 0.29289322,15.7071068 C-0.06759074,15.3466228 -0.09532028,14.7793918 0.20970461,14.3871006 L0.29289322,14.2928932 L6.585,7.999 L0.29289322,1.70710678 C-0.09763107,1.31658249 -0.09763107,0.68341751 0.29289322,0.29289322 C0.65337718,-0.06759074 1.22060824,-0.09532028 1.61289944,0.20970461 Z" id="path-1"></path>
                </g>
                <g id="color-/-primary-Clipped">
                    <mask id="mask-2" fill="white">
                        <use xlink:href="#path-1"></use>
                    </mask>
                    <g id="path-1"></g>
                    <g id="color-/-primary" mask="url(#mask-2)" fill="#FFFFFF" fill-rule="nonzero">
                        <g transform="translate(-4.000000, -4.000000)" id="Rectangle">
                            <rect x="0" y="0" width="24" height="24"></rect>
                        </g>
                    </g>
                </g>
            </g>
        </g>
    </g>
</svg>