<?xml version="1.0" encoding="UTF-8"?>
<svg width="18px" height="18px" viewBox="0 0 18 18" version="1.1" xmlns="http://www.w3.org/2000/svg" xmlns:xlink="http://www.w3.org/1999/xlink">
    <!-- Generator: Sketch 64 (93537) - https://sketch.com -->
    <title>color-/-primary Clipped</title>
    <desc>Created with Sketch.</desc>
    <defs>
        <path d="M8,15 C8,15.2163702 7.9298221,15.4269038 7.8,15.6 L7.8,15.6 L4.8,19.6 C4.4,20.1333333 3.6,20.1333333 3.2,19.6 L3.2,19.6 L0.2,15.6 C0.07017787,15.4269038 0,15.2163702 0,15 L0,15 L0,1 C0,0.44771525 0.44771525,0 1,0 L1,0 L7,0 C7.5522847,0 8,0.44771525 8,1 L8,1 L8,15 Z M5.999,6 L1.999,6 L2,14.666 L4,17.332 L6,14.666 L5.999,6 Z M6,1.999 L2,1.999 L1.999,4 L5.999,4 L6,1.999 Z" id="path-1"></path>
    </defs>
    <g id="Page-1" stroke="none" stroke-width="1" fill="none" fill-rule="evenodd">
        <g id="Artboard" transform="translate(-293.000000, -218.000000)">
            <g id="edit" transform="translate(291.000000, 218.000000)">
                <g id="color-/-primary-Clipped" transform="translate(10.000000, 10.000000) rotate(-315.000000) translate(-10.000000, -10.000000) translate(6.000000, 0.000000)">
                    <mask id="mask-2" fill="white">
                        <use xlink:href="#path-1"></use>
                    </mask>
                    <g id="path-1"></g>
                    <g id="color-/-primary" mask="url(#mask-2)" fill="#1A73E8" fill-rule="nonzero">
                        <g transform="translate(-8.000000, -2.000000)" id="Rectangle">
                            <rect x="0" y="0" width="24" height="24"></rect>
                        </g>
                    </g>
                </g>
            </g>
        </g>
    </g>
</svg>