<?xml version="1.0" encoding="UTF-8"?>
<svg width="16px" height="18px" viewBox="0 0 16 18" version="1.1" xmlns="http://www.w3.org/2000/svg" xmlns:xlink="http://www.w3.org/1999/xlink">
    <!-- Generator: Sketch 64 (93537) - https://sketch.com -->
    <title>drawer</title>
    <desc>Created with Sketch.</desc>
    <defs>
        <path d="M15,16 C15.5522847,16 16,16.4477153 16,17 C16,17.5128358 15.6139598,17.9355072 15.1166211,17.9932723 L15,18 L1,18 C0.44771525,18 0,17.5522847 0,17 C0,16.4871642 0.38604019,16.0644928 0.88337887,16.0067277 L1,16 L15,16 Z M7,8 C7.5522847,8 8,8.4477153 8,9 C8,9.5128358 7.6139598,9.9355072 7.1166211,9.9932723 L7,10 L1,10 C0.44771525,10 0,9.5522847 0,9 C0,8.4871642 0.38604019,8.0644928 0.88337887,8.0067277 L1,8 L7,8 Z M15,0 C15.5522847,0 16,0.44771525 16,1 C16,1.51283584 15.6139598,1.93550716 15.1166211,1.99327227 L15,2 L1,2 C0.44771525,2 0,1.55228475 0,1 C0,0.48716416 0.38604019,0.06449284 0.88337887,0.00672773 L1,0 L15,0 Z" id="path-1"></path>
    </defs>
    <g id="Page-1" stroke="none" stroke-width="1" fill="none" fill-rule="evenodd">
        <g id="Artboard" transform="translate(-227.000000, -210.000000)">
            <g id="drawer" transform="translate(227.000000, 210.000000)">
                <g id="Combined-Shape" fill="#000000" fill-rule="nonzero">
                    <path d="M15,16 C15.5522847,16 16,16.4477153 16,17 C16,17.5128358 15.6139598,17.9355072 15.1166211,17.9932723 L15,18 L1,18 C0.44771525,18 0,17.5522847 0,17 C0,16.4871642 0.38604019,16.0644928 0.88337887,16.0067277 L1,16 L15,16 Z M7,8 C7.5522847,8 8,8.4477153 8,9 C8,9.5128358 7.6139598,9.9355072 7.1166211,9.9932723 L7,10 L1,10 C0.44771525,10 0,9.5522847 0,9 C0,8.4871642 0.38604019,8.0644928 0.88337887,8.0067277 L1,8 L7,8 Z M15,0 C15.5522847,0 16,0.44771525 16,1 C16,1.51283584 15.6139598,1.93550716 15.1166211,1.99327227 L15,2 L1,2 C0.44771525,2 0,1.55228475 0,1 C0,0.48716416 0.38604019,0.06449284 0.88337887,0.00672773 L1,0 L15,0 Z" id="path-1"></path>
                </g>
                <g id="color-/-primary-Clipped">
                    <mask id="mask-2" fill="white">
                        <use xlink:href="#path-1"></use>
                    </mask>
                    <g id="path-1"></g>
                    <g id="color-/-primary" mask="url(#mask-2)" fill="#FFFFFF" fill-rule="nonzero">
                        <g transform="translate(-4.000000, -3.000000)" id="Rectangle">
                            <rect x="0" y="0" width="24" height="24"></rect>
                        </g>
                    </g>
                </g>
            </g>
        </g>
    </g>
</svg>