<?xml version="1.0" encoding="UTF-8"?>
<svg width="18px" height="18px" viewBox="0 0 18 18" version="1.1" xmlns="http://www.w3.org/2000/svg" xmlns:xlink="http://www.w3.org/1999/xlink">
    <!-- Generator: Sketch 64 (93537) - https://sketch.com -->
    <title>search</title>
    <desc>Created with Sketch.</desc>
    <defs>
        <path d="M8,0 C12.418278,0 16,3.581722 16,8 C16,9.8486595 15.3729536,11.5508646 14.3199461,12.9055298 L17.7071068,16.2928932 C18.0976311,16.6834175 18.0976311,17.3165825 17.7071068,17.7071068 C17.3466228,18.0675907 16.7793918,18.0953203 16.3871006,17.7902954 L16.2928932,17.7071068 L12.9055298,14.3199461 C11.5508646,15.3729536 9.8486595,16 8,16 C3.581722,16 0,12.418278 0,8 C0,3.581722 3.581722,0 8,0 Z M8,2 C4.6862915,2 2,4.6862915 2,8 C2,11.3137085 4.6862915,14 8,14 C11.3137085,14 14,11.3137085 14,8 C14,4.6862915 11.3137085,2 8,2 Z" id="path-1"></path>
    </defs>
    <g id="Page-1" stroke="none" stroke-width="1" fill="none" fill-rule="evenodd">
        <g id="Artboard" transform="translate(-337.000000, -217.000000)">
            <g id="search" transform="translate(337.000000, 217.000000)">
                <g id="Combined-Shape" fill="#000000" fill-rule="nonzero">
                    <path d="M8,0 C12.418278,0 16,3.581722 16,8 C16,9.8486595 15.3729536,11.5508646 14.3199461,12.9055298 L17.7071068,16.2928932 C18.0976311,16.6834175 18.0976311,17.3165825 17.7071068,17.7071068 C17.3466228,18.0675907 16.7793918,18.0953203 16.3871006,17.7902954 L16.2928932,17.7071068 L12.9055298,14.3199461 C11.5508646,15.3729536 9.8486595,16 8,16 C3.581722,16 0,12.418278 0,8 C0,3.581722 3.581722,0 8,0 Z M8,2 C4.6862915,2 2,4.6862915 2,8 C2,11.3137085 4.6862915,14 8,14 C11.3137085,14 14,11.3137085 14,8 C14,4.6862915 11.3137085,2 8,2 Z" id="path-1"></path>
                </g>
                <g id="color-/-primary-Clipped">
                    <mask id="mask-2" fill="white">
                        <use xlink:href="#path-1"></use>
                    </mask>
                    <g id="path-1"></g>
                    <g id="color-/-primary" mask="url(#mask-2)" fill="#FFFFFF" fill-rule="nonzero">
                        <g transform="translate(-3.000000, -3.000000)" id="Rectangle">
                            <rect x="0" y="0" width="24" height="24"></rect>
                        </g>
                    </g>
                </g>
            </g>
        </g>
    </g>
</svg>